<svg xmlns="http://www.w3.org/2000/svg" width="25.947" height="17" viewBox="0 0 25.947 17">
  <path d="M24,0H1.943A1.943,1.943,0,0,0,0,1.943V15.057A1.943,1.943,0,0,0,1.943,17H24a1.943,1.943,0,0,0,1.943-1.943V1.943A1.943,1.943,0,0,0,24,0Z" transform="translate(0 0)" fill="#41479b"/>
  <path d="M25.92,1.622A1.943,1.943,0,0,0,24,0H23.5L15.21,5.43V0H10.737V5.43L2.449,0H1.943A1.943,1.943,0,0,0,.027,1.622L7.111,6.263H0v4.474H7.111L.027,15.378A1.943,1.943,0,0,0,1.943,17h.506l8.288-5.43V17H15.21V11.57L23.5,17H24a1.943,1.943,0,0,0,1.916-1.622l-7.084-4.641h7.111V6.263H18.837Z" fill="#f5f5f5"/>
  <g id="Group" transform="translate(0 0)">
    <path d="M14.316,0H11.632V7.158H0V9.842H11.632V17h2.684V9.842H25.947V7.158H14.316Z" transform="translate(0 0)" fill="#ff4b55"/>
    <path d="M.789,6.138,10.245,0H8.6L0,5.583A1.946,1.946,0,0,0,.789,6.138Z" transform="translate(0.467 10.737)" fill="#ff4b55"/>
    <path d="M1.643,0H0L9.158,5.945a1.952,1.952,0,0,0,.623-.663Z" transform="translate(15.911 10.737)" fill="#ff4b55"/>
    <path d="M0,.691,7.993,5.88H9.637L.579,0A1.951,1.951,0,0,0,0,.691Z" transform="translate(0.205 0.383)" fill="#ff4b55"/>
    <path d="M1.643,6.144,10.26.55a1.946,1.946,0,0,0-.8-.55L0,6.144Z" transform="translate(15.21 0.119)" fill="#ff4b55"/>
  </g>
</svg>
